#!OML:ASF H:\Punching\Project 1\Capture day 1\Session 1\female.ASF
:FULLY-SPECIFIED
:DEGREES
3291
root -1.12561 15.6126 25.2847 11.7147 -1.72064 -5.06185
lowerback -6.75094 1.29513 6.18122
upperback -5.75218 1.44786 0.799523
thorax -2.0576 0.544934 -2.56374
lowerneck -14.8685 5.10757 10.8223
upperneck 39.754 6.49356 -5.25377
head 17.8292 3.60561 -3.09319
rclavicle -1.74061e-014 -1.1281e-014
rhumerus -25.841 3.78537 -77.0166
rradius 35.5945
rwrist 0.967596
rhand -11.8654 -6.77433
rfingers 7.12502
rthumb 14.1867 -36.2699
lclavicle -1.74061e-014 -1.1281e-014
lhumerus -46.9467 9.74363 71.3821
lradius 35.3304
lwrist -16.6763
lhand -5.05953 10.5808
lfingers 7.12502
lthumb 20.7362 39.4929
rfemur -6.88226 1.94656 32.7692
rtibia 16.317
rfoot -16.8718 -12.1116
rtoes 4.09304
lfemur -38.8402 -6.41202 -14.5694
ltibia 27.1917
lfoot -18.9277 21.3177
ltoes -6.00839
3292
root -1.12795 15.604 25.4115 11.8185 -1.96231 -5.22534
lowerback -6.8919 1.35529 6.25087
upperback -5.77728 1.51445 0.826685
thorax -1.99962 0.577577 -2.56828
lowerneck -14.8501 5.17481 10.8579
upperneck 39.7445 6.62105 -5.32766
head 17.8416 3.65243 -3.10872
rclavicle -1.758e-014 -1.38155e-014
rhumerus -25.5518 4.0233 -77.2907
rradius 35.6406
rwrist 0.841423
rhand -11.7929 -6.80202
rfingers 7.12502
rthumb 14.2566 -36.2927
lclavicle -1.758e-014 -1.38155e-014
lhumerus -47.0965 9.84258 71.187
lradius 35.1712
lwrist -16.8736
lhand -4.91669 10.5761
lfingers 7.12502
lthumb 20.8735 39.4731
rfemur -5.96152 2.03919 32.8971
rtibia 15.3451
rfoot -16.7641 -11.9507
rtoes 3.90333
lfemur -39.1684 -6.97596 -13.9844
ltibia 25.7333
lfoot -19.3907 21.9335
ltoes -6.02638
3293
root -1.12957 15.5939 25.5388 11.9117 -2.19812 -5.39343
lowerback -7.01886 1.41101 6.32333
upperback -5.80448 1.57593 0.855776
thorax -1.95205 0.607275 -2.57274
lowerneck -14.8272 5.24327 10.8983
upperneck 39.7375 6.7474 -5.39679
head 17.8545 3.70028 -3.12321
rclavicle 3.91357e-016 -1.31198e-014
rhumerus -25.2881 4.25469 -77.5729
rradius 35.6865
rwrist 0.729756
rhand -11.7304 -6.81412
rfingers 7.12502
rthumb 14.3168 -36.3005
lclavicle 3.91357e-016 -1.31198e-014
lhumerus -47.2542 9.94119 70.9906
lradius 35.0005
lwrist -17.0908
lhand -4.78939 10.565
lfingers 7.12502
lthumb 20.9958 39.4485
rfemur -5.00857 2.14912 33.025
rtibia 14.3418
rfoot -16.6227 -11.8081
rtoes 3.62982
lfemur -39.5379 -7.70913 -13.2857
ltibia 24.5121
lfoot -20.0624 22.6648
ltoes -6.0244
3294
root -1.13021 15.5823 25.6669 11.9856 -2.42752 -5.56606
lowerback -7.12118 1.4657 6.40606
upperback -5.83343 1.63736 0.882214
thorax -1.91972 0.636105 -2.58601
lowerneck -14.8 5.30909 10.9419
upperneck 39.7327 6.86501 -5.45597
head 17.8663 3.74656 -3.13542
rclavicle 1.92759e-014 -9.24349e-015
rhumerus -25.0605 4.46423 -77.8636
rradius 35.7301
rwrist 0.639165
rhand -11.7008 -6.77509
rfingers 7.12502
rthumb 14.3453 -36.2595
lclavicle 1.92759e-014 -9.24349e-015
lhumerus -47.4169 10.0304 70.7922
lradius 34.8179
lwrist -17.3241
lhand -4.67448 10.5543
lfingers 7.12502
lthumb 21.1061 39.4256
rfemur -4.02212 2.26612 33.1517
rtibia 13.3227
rfoot -16.4615 -11.6726
rtoes 3.25976
lfemur -39.9461 -8.71364 -12.4124
ltibia 23.5373
lfoot -20.9701 23.64
ltoes -6.03657
3295
root -1.1297 15.5684 25.796 12.0382 -2.641 -5.74501
lowerback -7.204 1.51498 6.50192
upperback -5.85831 1.69212 0.907473
thorax -1.89422 0.661059 -2.60844
lowerneck -14.7735 5.37518 10.9933
upperneck 39.7254 6.97831 -5.51102
head 17.8768 3.7928 -3.1478
rclavicle -1.89777e-014 -2.57426e-014
rhumerus -24.8628 4.65576 -78.1663
rradius 35.7794
rwrist 0.562994
rhand -11.6945 -6.72613
rfingers 7.12502
rthumb 14.3514 -36.2101
lclavicle -1.89777e-014 -2.57426e-014
lhumerus -47.5752 10.1179 70.5913
lradius 34.6209
lwrist -17.5699
lhand -4.57422 10.5376
lfingers 7.12502
lthumb 21.2025 39.3981
rfemur -3.01299 2.37769 33.2811
rtibia 12.3139
rfoot -16.2918 -11.5426
rtoes 2.78375
lfemur -40.391 -10.0499 -11.3277
ltibia 22.8011
lfoot -22.1562 24.9478
ltoes -5.9614
